<svg width="32" height="32" viewBox="0 0 32 32" fill="none" xmlns="http://www.w3.org/2000/svg">
  <rect width="32" height="32" rx="6" fill="#0A1A14"/>
  <path d="M16 6V26" stroke="#D4A853" stroke-width="2" stroke-linecap="round"/>
  <path d="M16 12C16 12 19 10 22 10C25 10 26 12 26 12" stroke="#D4A853" stroke-width="2" stroke-linecap="round"/>
  <path d="M16 12C16 12 13 10 10 10C7 10 6 12 6 12" stroke="#D4A853" stroke-width="2" stroke-linecap="round"/>
  <path d="M16 18C16 18 20 16 23 16C26 16 27 18 27 18" stroke="#D4A853" stroke-width="1.5" stroke-linecap="round"/>
  <path d="M16 18C16 18 12 16 9 16C6 16 5 18 5 18" stroke="#D4A853" stroke-width="1.5" stroke-linecap="round"/>
  <circle cx="16" cy="6" r="1.5" fill="#D4A853"/>
</svg>
